<?xml version="1.0" encoding="UTF-8" standalone="no"?>
<!-- Svg Vector Icons : http://www.onlinewebfonts.com/icon -->

<svg
   xmlns:dc="http://purl.org/dc/elements/1.1/"
   xmlns:cc="http://creativecommons.org/ns#"
   xmlns:rdf="http://www.w3.org/1999/02/22-rdf-syntax-ns#"
   xmlns:svg="http://www.w3.org/2000/svg"
   xmlns="http://www.w3.org/2000/svg"
   xmlns:sodipodi="http://sodipodi.sourceforge.net/DTD/sodipodi-0.dtd"
   xmlns:inkscape="http://www.inkscape.org/namespaces/inkscape"
   version="1.1"
   x="0px"
   y="0px"
   viewBox="0 0 1000 1000"
   enable-background="new 0 0 1000 1000"
   xml:space="preserve"
   id="svg953"
   sodipodi:docname="ada07cd8e4856a015aed38e6d2ec70d3.svg"
   inkscape:version="0.92.4 (5da689c313, 2019-01-14)"><defs
   id="defs957" /><sodipodi:namedview
   pagecolor="#ffffff"
   bordercolor="#666666"
   borderopacity="1"
   objecttolerance="10"
   gridtolerance="10"
   guidetolerance="10"
   inkscape:pageopacity="0"
   inkscape:pageshadow="2"
   inkscape:window-width="1920"
   inkscape:window-height="986"
   id="namedview955"
   showgrid="false"
   inkscape:zoom="0.236"
   inkscape:cx="500"
   inkscape:cy="500"
   inkscape:window-x="-11"
   inkscape:window-y="-11"
   inkscape:window-maximized="1"
   inkscape:current-layer="g951" />
<metadata
   id="metadata943"> Svg Vector Icons : http://www.onlinewebfonts.com/icon <rdf:RDF><cc:Work
     rdf:about=""><dc:format>image/svg+xml</dc:format><dc:type
       rdf:resource="http://purl.org/dc/dcmitype/StillImage" /></cc:Work></rdf:RDF></metadata>
<g
   id="g951"><g
     transform="translate(0.000000,491.000000) scale(0.100000,-0.100000)"
     id="g949"
     style="stroke:#f4f2ff;stroke-opacity:1;stroke-width:11;stroke-miterlimit:4;stroke-dasharray:none;fill:#ffffff;fill-opacity:1"><path
       d="M7621.7,4804.7c-138-26-306-128-368-224c-36-54-52-60-160-68c-152-10-278-68-398-186c-250-248-268-602.1-42-866.1l68-80l-112-156c-176-248-274-466-532-1198.1c-64-186-182-468-258-626.1c-128-264-152-300-304-452c-286-286-472-342-1054.1-324c-888.1,26-1666.2,214-2374.2,572.1c-428,218-700.1,430-1068.1,832.1c-114,124-208,158-322,118c-136-46-192-162-194-398c-2-204,40-374,150-610.1c136-292,380-628.1,596.1-824.1l80-72l-108-36C685,30.3,533-345.8,935-503.8c202-80,196-72,106-152c-42-38-92-110-110-158c-32-82-32-90,6-174c32-72,60-98,164-154c160-86,242-170,390-404c252-398,696.1-890.1,1090.1-1206.1c654.1-522.1,1436.1-882.1,2120.2-972.1c94-12,200-26,236-32l64-10v-238v-238l-138-72c-292-154-506.1-388-474-518.1c24-94,98-152,198-152c78,0,98,10,212,120c370,352,828.1,358,1194.1,16c176-166,260-182,384-70c52,48,58,148,14,232c-46,90-260,272-412.1,352c-166,86-288,126-452,142l-126,14v204v206l156,14c544.1,50,1138.1,226,1618.2,480c282,148,500.1,306,726.1,522.1c494.1,474,742.1,1022.1,774.1,1708.2c20,432.1-20,738.1-184,1412.2c-150,618.1-154,900.1-14,1178.1c94,188,118,210,236,210c122,0,320-58,404-116c142-102,274-92,346,22c36,56,38,86,28,234c-26,358-112,582.1-288,760.1c-92,92-114,128-134,222c-36,164-106,314-202,432l-86,106l66,86c86,114,142,308,124,432c-44,308-260,516.1-552,538.1c-114,8-142,16-166,56c-58,86-182,192-270,232C7893.7,4798.7,7711.7,4820.7,7621.7,4804.7z M7841.7,4370.7c56-42,114-142,150-250c18-58,46-112,62-118c14-6,70,4,122,22c188,62,308,46,356.1-48c46-90,38-170-28-244c-58-64-58-66-146-40c-280,84-414,106-626.1,106c-226,0-458-44-590.1-112c-78-40-150-10-206,86c-50,86-32,182,48,264c74,74,174,80,346,20c84-28,116-32,122-14c82,234,112,292,180,330C7683.7,4402.7,7803.7,4402.7,7841.7,4370.7z M7985.7,3368.6c188-36,352-114,478-228c122-110,192-242,216-412c24-162,36-186,168-298c94-80,194-230,194-292c0-12-30-10-74,2c-126,36-466,32-538-8c-132-72-322.1-358-400-606.1c-104-326-88-638.1,62-1250.1c118-474,150-654.1,168-954.1c40-600-72-1046.1-366.1-1464.1c-138-196-412-458.1-632.1-604.1c-600.1-400-1484.1-650.1-2160.2-608.1c-244,14-634.1,78-726.1,118l-64,28l92,2c230,4,592.1,104,848.1,234c672.1,342,1124.1,1106.1,1164.1,1972.2l12,234l-62,60c-46,48-78,62-138,62c-132-2-206-92-206-254c-2-248-84-608-198-868.1c-228-518.1-612.1-850.1-1132.1-980.1c-232-58-658.1-72-940.1-30c-318,46-604.1,122-698.1,184c-410,270-962.1,848.1-1244.1,1308.1c-64,104-164,236-222,294l-106,104l86,22c122,30,180,68,222,144c76,136,0,238-312,412l-184,102l58,22c82,32,294,72,450,88c184,20,246,44,288,114c40,66,34,176-10,230c-14,16-90,60-172,98c-80,38-172,86-202,110c-126,98-356,340-464.1,490c-108,152-280,464-280,512.1c0,12,70-38,154-112c628.1-538.1,1590.2-934.1,2636.3-1080.1c326-46,918.1-70,1132.1-48c362,36,626.1,154,876.1,390c302.1,284,454.1,570.1,756.1,1428.1c232,656.1,374,930.1,580.1,1124.1C7323.7,3370.6,7613.7,3438.6,7985.7,3368.6z"
       id="path945"
       style="stroke:#f4f2ff;stroke-opacity:1;stroke-width:11;stroke-miterlimit:4;stroke-dasharray:none;fill:#ffffff;fill-opacity:1" /><path
       d="M7875.7,2966.5c-190-66-266-252-174-430c106-208,406-208,528.1,0C8365.8,2768.5,8129.7,3054.5,7875.7,2966.5z"
       id="path947"
       style="stroke:#f4f2ff;stroke-opacity:1;stroke-width:11;stroke-miterlimit:4;stroke-dasharray:none;fill:#ffffff;fill-opacity:1" /></g></g>
</svg>