<?xml version="1.0" encoding="iso-8859-1"?>
<!-- Generator: Adobe Illustrator 19.0.0, SVG Export Plug-In . SVG Version: 6.00 Build 0)  -->
<svg version="1.1" id="Layer_1" xmlns="http://www.w3.org/2000/svg" xmlns:xlink="http://www.w3.org/1999/xlink" x="0px" y="0px"
	 viewBox="0 0 512.002 512.002" style="enable-background:new 0 0 512.002 512.002;" xml:space="preserve">
<g>
	<g>
		<g>
			<path d="M99.81,135.831c-5.587,0-10.115,4.532-10.115,10.116c0,5.588,4.529,10.116,10.115,10.116
				c5.588,0,10.115-4.528,10.115-10.116C109.927,140.363,105.399,135.831,99.81,135.831z"/>
			<path d="M365.946,295.712l0.063-0.178c0.106-0.314,0.19-0.633,0.255-0.953c0.919-3.364,1.386-6.799,1.386-10.219
				c0-21.383-17.397-38.781-38.782-38.783H216.695c-38.767,0-70.305,31.54-70.305,70.305c0,38.764,31.539,70.302,70.305,70.302
				h23.542c16.257,0,32.107-2.91,47.168-8.657c4.91,2.167,10.236,3.299,15.613,3.299c15.705,0,29.727-9.527,35.71-23.713
				c16.805-4.397,28.921-19.694,28.921-37.493c0-6.058-1.41-11.978-4.108-17.349c0.431-1.099,0.855-2.22,1.268-3.357
				C365.234,297.87,365.616,296.794,365.946,295.712z M331.644,342.046c-3.266,0.399-5.964,2.737-6.823,5.912
				c-2.66,9.835-11.626,16.703-21.804,16.703c-3.917,0-7.791-1.036-11.206-2.994c-2.173-1.246-4.799-1.416-7.115-0.457
				c-14.121,5.846-29.079,8.81-44.46,8.81h-23.542c-29.852,0-54.138-24.284-54.138-54.135c0-29.852,24.286-54.138,54.138-54.138
				h112.172c12.47,0.001,22.616,10.146,22.616,22.616c0,2.103-0.309,4.231-0.918,6.325c-0.031,0.108-0.06,0.216-0.087,0.324
				c-0.201,0.651-0.432,1.3-0.691,1.927c-0.045,0.108-0.087,0.217-0.126,0.327c-0.806,2.231-1.654,4.381-2.52,6.388
				c-1.073,2.493-0.826,5.357,0.66,7.627c2.41,3.684,3.683,7.952,3.683,12.343C351.482,331.023,342.954,340.663,331.644,342.046z"/>
			<path d="M497.178,219.474c8.601-11.485,7.683-27.891-2.755-38.331c-5.542-5.543-12.912-8.596-20.751-8.596
				c-4.82,0-9.462,1.154-13.613,3.333c-0.083-16.113-13.216-29.195-29.346-29.195c-16.183,0-29.349,13.167-29.349,29.349v39.586
				H206.358v-60.851c0-27.145-13.406-51.203-33.929-65.95l16.632-11.163c1.307-0.891,2.546-1.95,3.575-3.052
				c3.832-4.092,5.84-9.433,5.654-15.035c-0.184-5.602-2.54-10.797-6.634-14.629c-4.95-4.632-11.566-6.4-17.791-5.37
				c-0.263-2.347-0.928-4.657-1.992-6.845c-2.449-5.043-6.716-8.829-12.013-10.664c-5.298-1.837-10.994-1.496-16.037,0.954
				c-1.483,0.72-2.857,1.597-4.105,2.613c-4.29-6.022-11.641-9.601-19.492-8.708c-5.57,0.636-10.559,3.402-14.048,7.791
				c-1.065,1.339-1.951,2.781-2.65,4.295c-6.628-4.226-15.378-4.548-22.467-0.097c-4.749,2.98-8.052,7.631-9.303,13.096
				c-1.25,5.464-0.297,11.091,2.684,15.839l15.072,24.013c-22.334,10.968-38.924,31.893-43.94,56.957h-3.79
				C18.744,138.816,0,157.559,0,180.599c0,4.465,3.619,8.084,8.084,8.084h2.141c3.224,12.228,13.58,21.582,26.331,23.34
				l-5.454,29.964c-0.8,4.392,2.112,8.601,6.506,9.401c0.49,0.089,0.977,0.131,1.457,0.131c2.543,0,4.891-1.209,6.395-3.16
				c11.045,93.115,83.824,167.564,176.147,181.15v49.542h-26.972c-4.464,0-8.084,3.618-8.084,8.084s3.619,8.084,8.084,8.084h96.011
				c4.464,0,8.084-3.618,8.084-8.084s-3.619-8.084-8.084-8.084h-8.442v-49.533c36.983-5.444,72.14-20.792,101.263-44.562
				c34.738-28.354,59.554-67.446,70.376-110.638h28.814c7.838,0,15.208-3.053,20.751-8.598c5.543-5.543,8.596-12.913,8.596-20.75
				C512.001,234.069,506.026,224.537,497.178,219.474z M43.99,196.162h-3.083c-5.62,0-10.538-3.003-13.274-7.479H43.99V196.162z
				 M43.99,172.515H17.473c3.392-10.176,13.008-17.534,24.31-17.534h2.206V172.515z M173.792,56.968
				c1.817-1.941,4.874-2.044,6.815-0.226c0.94,0.88,1.481,2.074,1.524,3.36c0.043,1.287-0.419,2.513-1.306,3.462
				c-0.225,0.241-0.552,0.516-0.825,0.702l-23.352,15.674c-1.82-0.768-3.683-1.453-5.567-2.089c2.045-0.091,4.05-0.946,5.545-2.544
				L173.792,56.968z M121.007,66.291l-3.192-27.973c-0.147-1.28,0.214-2.538,1.016-3.547c0.802-1.009,1.948-1.644,3.226-1.789
				c2.643-0.296,5.037,1.602,5.338,4.248c0.038,0.331,0.036,0.752,0,1.089l-2.377,20.823c-0.468,4.096,2.221,7.886,6.241,8.799
				c4.023,0.916,8.082-1.345,9.43-5.238l7.747-22.387c0.421-1.216,1.291-2.195,2.449-2.759c1.159-0.562,2.468-0.64,3.684-0.219
				c1.217,0.422,2.198,1.291,2.76,2.45c0.563,1.158,0.64,2.465,0.219,3.683c-0.11,0.318-0.295,0.701-0.473,0.986l-13.199,21.029
				c-2.214,3.527-1.386,8.159,1.913,10.702c0.047,0.037,0.099,0.068,0.148,0.104c-6.632-1.757-13.59-2.703-20.767-2.703
				c-2.621,0-5.21,0.136-7.768,0.38C119.893,72.335,121.363,69.403,121.007,66.291z M88.134,49.25
				c-0.685-1.092-0.904-2.384-0.618-3.64c0.288-1.256,1.045-2.324,2.137-3.008c2.252-1.414,5.234-0.733,6.646,1.518
				c0.179,0.286,0.362,0.673,0.474,0.988l8.563,24.744c0.868,2.508,2.863,4.334,5.246,5.073c-1.881,0.343-3.746,0.73-5.58,1.2
				L88.134,49.25z M266.034,479.051h-28.261v-47.809c4.712,0.321,9.462,0.498,14.253,0.498c4.683,0,9.354-0.165,14.008-0.481
				V479.051z M491.973,254.291c-2.49,2.489-5.799,3.861-9.319,3.861h-35.227c-3.805,0-7.095,2.654-7.9,6.372
				c-9.131,42.149-32.673,80.472-66.286,107.908c-34.085,27.819-77.132,43.14-121.215,43.14
				c-105.796,0-191.868-86.071-191.868-191.869v-68.934c0-35.85,29.167-65.015,65.015-65.015c35.851,0,65.018,29.167,65.018,65.015
				v68.934c0,4.465,3.619,8.084,8.084,8.084h211.172c4.464,0,8.084-3.618,8.084-8.084v-47.669c0-7.269,5.913-13.182,13.182-13.182
				c7.268,0,13.18,5.913,13.18,13.182v17.485c0,3.269,1.97,6.218,4.99,7.469c3.02,1.25,6.498,0.56,8.809-1.754l6.659-6.66
				c2.49-2.49,5.8-3.861,9.321-3.861s6.831,1.371,9.32,3.86c5.14,5.142,5.141,13.504,0.002,18.643l-6.771,6.77
				c-2.313,2.312-3.004,5.789-1.753,8.81c1.251,3.021,4.199,4.99,7.468,4.99h0.715c7.269,0.001,13.18,5.915,13.18,13.184
				C495.833,248.491,494.463,251.801,491.973,254.291z"/>
		</g>
	</g>
</g>
<g>
</g>
<g>
</g>
<g>
</g>
<g>
</g>
<g>
</g>
<g>
</g>
<g>
</g>
<g>
</g>
<g>
</g>
<g>
</g>
<g>
</g>
<g>
</g>
<g>
</g>
<g>
</g>
<g>
</g>
</svg>
